<svg width="49" height="48" viewBox="0 0 49 48" fill="none" xmlns="http://www.w3.org/2000/svg">
<rect x="1" y="0.5" width="47" height="47" rx="23.5" stroke="#EF6039" stroke-opacity="0.300385"/>
<path d="M14.5 23.5C14.2239 23.5 14 23.7239 14 24C14 24.2761 14.2239 24.5 14.5 24.5V23.5ZM34.8536 24.3536C35.0488 24.1583 35.0488 23.8417 34.8536 23.6464L31.6716 20.4645C31.4763 20.2692 31.1597 20.2692 30.9645 20.4645C30.7692 20.6597 30.7692 20.9763 30.9645 21.1716L33.7929 24L30.9645 26.8284C30.7692 27.0237 30.7692 27.3403 30.9645 27.5355C31.1597 27.7308 31.4763 27.7308 31.6716 27.5355L34.8536 24.3536ZM14.5 24.5H34.5V23.5H14.5V24.5Z" fill="#EF6039"/>
</svg>
