<svg width="49" height="48" viewBox="0 0 49 48" fill="none" xmlns="http://www.w3.org/2000/svg">
<rect x="-0.5" y="0.5" width="47" height="47" rx="23.5" transform="matrix(-1 0 0 1 47.5 0)" stroke="#EF6039" stroke-opacity="0.300385"/>
<path d="M34.5 23.5C34.7761 23.5 35 23.7239 35 24C35 24.2761 34.7761 24.5 34.5 24.5V23.5ZM14.1464 24.3536C13.9512 24.1583 13.9512 23.8417 14.1464 23.6464L17.3284 20.4645C17.5237 20.2692 17.8403 20.2692 18.0355 20.4645C18.2308 20.6597 18.2308 20.9763 18.0355 21.1716L15.2071 24L18.0355 26.8284C18.2308 27.0237 18.2308 27.3403 18.0355 27.5355C17.8403 27.7308 17.5237 27.7308 17.3284 27.5355L14.1464 24.3536ZM34.5 24.5H14.5V23.5H34.5V24.5Z" fill="#EF6039"/>
</svg>
